<?xml version="1.0" standalone="no"?>
<!DOCTYPE svg PUBLIC "-//W3C//DTD SVG 20010904//EN"
 "http://www.w3.org/TR/2001/REC-SVG-20010904/DTD/svg10.dtd">
<svg version="1.0" xmlns="http://www.w3.org/2000/svg"
 width="128.000000pt" height="128.000000pt" viewBox="0 0 128.000000 128.000000"
 preserveAspectRatio="xMidYMid meet">
<metadata>
Created by potrace 1.16, written by Peter Selinger 2001-2019
</metadata>
<g transform="translate(0.000000,128.000000) scale(0.100000,-0.100000)"
fill="#000000" stroke="none">
<path d="M530 1197 l-105 -42 -3 -202 -2 -203 -175 0 -175 0 0 -270 0 -270
-25 0 c-18 0 -25 -5 -25 -20 0 -20 5 -20 608 -18 532 3 607 5 607 18 0 8 -10
16 -22 18 l-23 3 -2 272 -3 272 -95 57 c-75 46 -104 58 -137 58 l-42 0 -3 132
-3 133 -120 52 c-66 28 -127 52 -135 52 -8 0 -62 -19 -120 -42z m100 -502 l0
-485 -80 0 -80 0 0 458 0 458 68 26 c37 14 73 26 80 27 9 1 12 -102 12 -484z
m148 444 l82 -34 0 -447 0 -448 -95 0 -95 0 0 486 c0 385 3 485 13 481 6 -2
49 -20 95 -38z m182 -619 l0 -310 -25 0 -25 0 0 310 0 310 25 0 25 0 0 -310z
m133 236 l47 -28 0 -259 0 -259 -70 0 -70 0 0 301 0 301 23 -14 c12 -8 43 -27
70 -42z m-673 -296 l0 -250 -155 0 -155 0 0 250 0 250 155 0 155 0 0 -250z"/>
</g>
</svg>
