<?xml version="1.0" standalone="no"?>
<!DOCTYPE svg PUBLIC "-//W3C//DTD SVG 20010904//EN"
 "http://www.w3.org/TR/2001/REC-SVG-20010904/DTD/svg10.dtd">
<svg version="1.0" xmlns="http://www.w3.org/2000/svg"
 width="144.000000pt" height="124.000000pt" viewBox="0 0 144.000000 124.000000"
 preserveAspectRatio="xMidYMid meet">
<metadata>
Created by potrace 1.16, written by Peter Selinger 2001-2019
</metadata>
<g transform="translate(0.000000,124.000000) scale(0.100000,-0.100000)"
fill="#000000" stroke="none">
<path d="M215 1018 c-28 -25 -44 -78 -45 -145 0 -48 -3 -47 87 -44 l62 2 3
-73 c2 -57 6 -73 18 -73 13 0 15 24 15 158 l0 157 253 0 c156 0 261 -4 273
-10 16 -9 19 -22 19 -75 0 -61 -2 -65 -22 -65 -13 0 -41 -9 -63 -19 -155 -72
-151 -289 8 -356 20 -8 39 -15 42 -15 40 1 40 2 40 -70 l0 -70 -217 0 -218 0
0 -54 c0 -68 -7 -85 -38 -97 -18 -7 -31 -5 -48 6 -21 14 -24 23 -24 80 0 58
-2 65 -20 65 -18 0 -20 -7 -20 -60 0 -77 19 -115 64 -130 49 -16 610 -12 652
5 40 16 56 57 52 130 l-3 58 -72 -2 -73 -2 0 74 c0 71 1 75 24 81 64 16 126
105 126 181 0 76 -62 165 -126 181 -23 6 -24 10 -24 79 0 69 -2 75 -31 99
l-31 26 -318 0 c-316 0 -319 0 -345 -22z m835 -780 c0 -77 -2 -78 -301 -78
l-256 0 4 53 c3 28 6 57 8 62 2 7 99 10 274 10 l271 0 0 -47z"/>
<path d="M320 662 c0 -8 -21 -12 -65 -12 l-65 0 0 -134 0 -135 95 -3 c166 -5
275 2 275 18 0 8 6 14 14 14 20 0 46 28 46 48 0 11 -3 13 -8 6 -4 -6 -17 -16
-29 -23 -23 -12 -23 -11 -23 59 0 74 7 83 40 50 19 -19 20 -19 20 -1 0 11 -12
23 -30 31 -24 10 -30 19 -30 41 l0 29 -108 0 c-71 0 -112 4 -120 12 -9 9 -12
9 -12 0z"/>
</g>
</svg>
