<?xml version="1.0" standalone="no"?>
<!DOCTYPE svg PUBLIC "-//W3C//DTD SVG 20010904//EN"
 "http://www.w3.org/TR/2001/REC-SVG-20010904/DTD/svg10.dtd">
<svg version="1.0" xmlns="http://www.w3.org/2000/svg"
 width="154.000000pt" height="153.000000pt" viewBox="0 0 154.000000 153.000000"
 preserveAspectRatio="xMidYMid meet">
<metadata>
Created by potrace 1.16, written by Peter Selinger 2001-2019
</metadata>
<g transform="translate(0.000000,153.000000) scale(0.100000,-0.100000)"
fill="#000000" stroke="none">
<path d="M610 1150 l0 -60 -75 0 -75 0 0 -129 c0 -102 -3 -131 -15 -141 -13
-10 -15 -49 -15 -235 0 -204 2 -225 19 -246 l19 -24 367 0 367 0 19 24 c17 21
19 42 19 257 l0 234 -30 0 -30 0 0 190 0 190 -285 0 -285 0 0 -60z m548 -287
c-3 -275 -5 -318 -18 -318 -12 0 -16 21 -20 110 l-5 110 -40 5 c-35 4 -40 9
-43 33 -3 26 -2 27 42 27 33 0 46 4 46 14 0 10 -13 16 -42 18 -59 4 -63 28 -4
28 33 0 46 4 46 14 0 10 -13 16 -40 18 -52 4 -52 22 0 26 27 2 40 8 40 18 0
10 -13 14 -46 14 -59 0 -55 24 4 28 29 2 42 8 42 18 0 10 -13 14 -46 14 -59 0
-55 24 4 28 23 2 42 7 42 13 0 5 -98 9 -245 9 l-245 0 0 45 0 45 265 0 265 0
-2 -317z m-363 -83 l15 -29 142 -3 c102 -2 143 -6 146 -15 3 -10 -65 -13 -317
-13 l-321 0 0 38 c0 21 3 42 7 45 3 4 75 7 159 7 l153 0 16 -30z m415 -193 c0
-231 -3 -247 -42 -247 -32 0 -49 42 -46 112 3 60 4 63 31 66 l27 3 0 138 c0
131 3 151 22 151 4 0 8 -100 8 -223z m-108 -72 l3 -175 -311 0 c-228 0 -313 3
-322 12 -8 8 -12 62 -12 175 l0 163 320 0 319 0 3 -175z"/>
<path d="M522 585 c-38 -32 -48 -72 -28 -118 17 -42 41 -57 91 -57 47 0 71 14
91 52 50 96 -71 193 -154 123z"/>
</g>
</svg>
