<?xml version="1.0" standalone="no"?>
<!DOCTYPE svg PUBLIC "-//W3C//DTD SVG 20010904//EN"
 "http://www.w3.org/TR/2001/REC-SVG-20010904/DTD/svg10.dtd">
<svg version="1.0" xmlns="http://www.w3.org/2000/svg"
 width="102.000000pt" height="157.000000pt" viewBox="0 0 102.000000 157.000000"
 preserveAspectRatio="xMidYMid meet">
<metadata>
Created by potrace 1.16, written by Peter Selinger 2001-2019
</metadata>
<g transform="translate(0.000000,157.000000) scale(0.100000,-0.100000)"
fill="#000000" stroke="none">
<path d="M180 1085 c0 -114 0 -115 -25 -121 -14 -3 -34 -18 -45 -31 -19 -24
-20 -41 -20 -245 0 -215 5 -251 34 -270 6 -4 53 -8 104 -8 l92 0 0 -40 c0 -39
-1 -40 -35 -40 -28 0 -35 -4 -35 -20 0 -19 7 -20 260 -20 253 0 260 1 260 20
0 16 -7 20 -35 20 -34 0 -35 1 -35 40 l0 40 88 0 c80 0 91 2 110 23 21 23 22
31 22 256 l0 232 -26 24 c-15 14 -33 25 -40 25 -10 0 -14 27 -16 113 l-3 112
-327 3 -328 2 0 -115z m620 35 l0 -40 -295 0 -295 0 0 40 0 40 295 0 295 0 0
-40z m0 -290 l0 -210 -290 0 -290 0 0 210 0 210 290 0 290 0 0 -210z m-620
-77 l0 -173 330 0 330 0 0 176 c0 162 1 175 18 172 15 -3 17 -22 20 -196 l2
-192 -77 -1 c-63 -1 -316 0 -625 1 l-48 0 0 183 c0 182 4 204 35 204 13 0 15
-28 15 -174z m710 -267 c0 -2 -3 -11 -6 -20 -5 -14 -48 -16 -380 -16 -367 0
-374 0 -374 20 0 20 7 20 380 20 209 0 380 -2 380 -4z m-230 -116 l0 -40 -150
0 -150 0 0 40 0 40 150 0 150 0 0 -40z"/>
<path d="M474 1013 c-26 -5 -59 -39 -69 -70 -6 -21 -3 -23 25 -23 21 0 38 8
50 23 15 18 22 20 37 11 32 -20 28 -65 -11 -114 -46 -58 -48 -90 -6 -90 20 0
30 5 30 15 0 8 16 33 36 55 39 44 54 102 35 139 -21 39 -76 62 -127 54z"/>
<path d="M240 870 l0 -130 59 0 60 0 0 130 0 130 -60 0 -59 0 0 -130z"/>
<path d="M660 785 l0 -125 55 0 55 0 0 125 0 125 -55 0 -55 0 0 -125z"/>
</g>
</svg>
