<?xml version="1.0" standalone="no"?>
<!DOCTYPE svg PUBLIC "-//W3C//DTD SVG 20010904//EN"
 "http://www.w3.org/TR/2001/REC-SVG-20010904/DTD/svg10.dtd">
<svg version="1.0" xmlns="http://www.w3.org/2000/svg"
 width="187.000000pt" height="160.000000pt" viewBox="0 0 187.000000 160.000000"
 preserveAspectRatio="xMidYMid meet">
<metadata>
Created by potrace 1.16, written by Peter Selinger 2001-2019
</metadata>
<g transform="translate(0.000000,160.000000) scale(0.100000,-0.100000)"
fill="#000000" stroke="none">
<path d="M1361 1184 c-25 -31 -27 -63 -6 -90 20 -27 19 -47 -2 -40 -10 3 -31
-1 -47 -9 -15 -8 -29 -15 -30 -15 -1 0 -2 16 -2 36 0 63 -71 105 -119 71 -15
-12 -24 -11 -59 6 -58 29 -166 29 -222 -1 -56 -29 -102 -68 -120 -103 l-15
-29 -132 0 c-146 0 -187 -13 -207 -66 -6 -14 -10 -117 -10 -230 0 -272 7 -284
155 -284 l75 0 0 -34 c0 -33 -2 -35 -37 -38 -30 -2 -38 -7 -38 -23 0 -20 7
-20 270 -20 263 0 270 0 270 20 0 16 -8 21 -37 23 -36 3 -38 5 -38 38 l0 34
75 0 c80 0 126 15 141 47 5 10 12 92 17 183 12 251 12 293 3 324 -7 23 -6 28
5 24 8 -3 13 -11 11 -19 -11 -43 34 -99 80 -99 60 0 106 95 63 130 -20 16 -10
30 21 30 59 0 95 85 58 138 -23 34 -95 31 -123 -4z m-304 -79 c41 -12 52 -20
56 -40 2 -14 2 -24 -2 -22 -36 19 -106 47 -118 47 -78 0 -172 -75 -191 -153
-14 -55 -9 -86 24 -144 77 -135 283 -115 340 32 16 43 16 85 -2 143 -5 16 -2
22 10 22 22 0 36 -40 36 -103 -1 -126 -95 -217 -225 -217 -71 0 -112 18 -163
70 -63 66 -79 157 -41 240 24 53 53 86 94 107 68 36 109 40 182 18z m-344
-187 c-20 -198 178 -350 368 -283 24 9 61 29 82 46 l37 30 0 -61 0 -60 -385 0
-385 0 0 170 c0 220 -8 210 164 210 l125 0 -6 -52z m480 -398 c-13 -48 -25
-50 -378 -50 -353 0 -365 2 -378 50 -5 20 -2 20 378 20 380 0 383 0 378 -20z
m-223 -125 l0 -35 -155 0 -155 0 0 35 0 35 155 0 155 0 0 -35z"/>
<path d="M470 835 l0 -95 105 0 105 0 0 95 0 95 -105 0 -105 0 0 -95z"/>
<path d="M1274 827 c-2 -7 -3 -100 -2 -207 l3 -195 139 -3 c93 -2 143 1 152 9
11 9 14 53 14 210 l0 199 -150 0 c-113 0 -152 -3 -156 -13z m266 -197 l0 -170
-115 0 -115 0 0 170 0 170 115 0 115 0 0 -170z"/>
<path d="M1330 730 l0 -50 95 0 95 0 0 49 0 49 -95 1 -95 2 0 -51z"/>
</g>
</svg>
