<?xml version="1.0" standalone="no"?>
<!DOCTYPE svg PUBLIC "-//W3C//DTD SVG 20010904//EN"
 "http://www.w3.org/TR/2001/REC-SVG-20010904/DTD/svg10.dtd">
<svg version="1.0" xmlns="http://www.w3.org/2000/svg"
 width="154.000000pt" height="122.000000pt" viewBox="0 0 154.000000 122.000000"
 preserveAspectRatio="xMidYMid meet">
<metadata>
Created by potrace 1.16, written by Peter Selinger 2001-2019
</metadata>
<g transform="translate(0.000000,122.000000) scale(0.100000,-0.100000)"
fill="#000000" stroke="none">
<path d="M151 1023 c-21 -18 -21 -20 -19 -453 l3 -435 233 -3 232 -2 0 250 0
250 65 0 c53 0 66 3 75 19 6 11 10 90 10 185 0 153 -2 168 -20 186 -19 19 -33
20 -289 20 -241 0 -271 -2 -290 -17z m559 -43 c0 -20 -7 -20 -270 -20 -263 0
-270 0 -270 20 0 20 7 20 270 20 263 0 270 0 270 -20z m0 -220 l0 -100 -247 0
-248 0 -22 33 c-18 25 -23 47 -23 93 0 34 3 64 7 67 3 4 125 7 270 7 l263 0 0
-100z m-520 -315 l0 -185 23 0 c29 0 47 -18 47 -47 0 -23 2 -23 105 -23 91 0
105 2 105 17 0 25 30 53 57 53 l23 0 0 185 c0 117 4 185 10 185 6 0 10 -83 10
-230 l0 -230 -200 0 -200 0 0 230 c0 147 4 230 10 230 6 0 10 -68 10 -185z"/>
<path d="M920 965 c0 -35 0 -35 -45 -35 l-45 0 0 -84 c0 -47 -4 -88 -10 -91
-6 -4 -10 -53 -10 -115 l0 -108 -30 -7 c-98 -22 -144 -150 -85 -238 32 -46 71
-67 127 -67 56 0 107 26 136 70 19 28 23 46 20 88 l-3 52 48 0 47 0 0 -80 c0
-73 -2 -80 -20 -80 -29 0 -25 -9 31 -70 l50 -55 55 60 c52 58 53 60 29 63 -24
3 -25 5 -25 83 l0 79 50 0 50 0 0 285 0 285 -185 0 -185 0 0 -35z m120 -245
c9 -18 21 -20 95 -20 50 0 85 -4 85 -10 0 -6 -70 -10 -190 -10 l-190 0 0 30 0
30 95 0 c84 0 95 -2 105 -20z m180 -95 c0 -12 -17 -15 -96 -15 -72 0 -95 -3
-92 -12 3 -9 36 -15 99 -18 l94 -4 -95 -6 c-75 -4 -95 -8 -95 -20 0 -12 20
-16 95 -21 l95 -5 -92 -2 c-75 -2 -93 -5 -93 -17 0 -8 5 -15 10 -15 6 0 10 -4
10 -10 0 -5 -23 -10 -51 -10 -40 0 -58 5 -81 26 -17 14 -44 28 -59 31 -28 5
-29 8 -29 59 l0 54 190 0 c162 0 190 -2 190 -15z"/>
</g>
</svg>
