<?xml version="1.0" standalone="no"?>
<!DOCTYPE svg PUBLIC "-//W3C//DTD SVG 20010904//EN"
 "http://www.w3.org/TR/2001/REC-SVG-20010904/DTD/svg10.dtd">
<svg version="1.0" xmlns="http://www.w3.org/2000/svg"
 width="512.000000pt" height="512.000000pt" viewBox="0 0 512.000000 512.000000"
 preserveAspectRatio="xMidYMid meet">
<metadata>
Created by potrace 1.16, written by Peter Selinger 2001-2019
</metadata>
<g transform="translate(0.000000,512.000000) scale(0.100000,-0.100000)"
fill="#000000" stroke="none">
<path d="M773 5051 c-24 -15 -115 -160 -403 -640 l-372 -620 4 -60 c6 -79 16
-90 203 -204 146 -89 152 -92 211 -92 l60 0 105 -164 c175 -275 261 -346 590
-495 235 -106 788 -428 789 -460 0 -43 34 -147 75 -232 52 -108 132 -213 216
-283 l61 -51 -244 0 c-225 0 -245 -2 -276 -20 -59 -36 -72 -71 -72 -195 0
-122 13 -162 63 -199 28 -21 33 -21 1050 -21 987 0 1023 1 1050 19 48 33 57
63 57 198 0 106 -3 128 -20 156 -35 57 -61 62 -336 62 l-246 0 57 46 c80 65
167 178 220 287 50 103 70 171 86 296 26 212 -46 461 -185 638 l-56 71 -19
124 c-11 67 -34 218 -51 333 -27 187 -34 218 -66 282 -44 91 -51 97 -465 401
-379 279 -398 292 -504 327 -71 24 -102 28 -295 36 -439 18 -783 48 -804 69
-6 6 -4 16 5 26 22 27 18 124 -8 160 -19 26 -222 159 -320 208 -44 22 -120 21
-160 -3z m250 -239 c48 -29 87 -55 87 -57 0 -2 -157 -265 -348 -584 l-349
-581 -124 76 c-68 42 -125 77 -126 78 -2 2 642 1081 683 1144 l15 23 37 -22
c20 -13 76 -47 125 -77z m277 -326 c154 -23 294 -34 596 -46 323 -13 384 -21
472 -66 37 -19 227 -152 422 -297 290 -214 359 -270 383 -309 25 -40 33 -73
58 -240 16 -106 32 -217 35 -245 l7 -53 -59 29 c-75 38 -172 69 -238 77 -28 4
-58 10 -66 14 -8 5 -37 60 -63 123 l-49 115 -140 103 c-78 57 -150 108 -162
112 -13 5 -133 -20 -369 -79 -306 -76 -354 -91 -390 -118 -83 -63 -126 -199
-96 -303 21 -75 80 -126 314 -266 116 -69 233 -147 262 -172 118 -104 241
-306 265 -433 10 -53 9 -67 -5 -97 -19 -40 -57 -68 -80 -59 -12 4 -14 11 -6
31 16 43 10 148 -12 207 -26 72 -81 127 -194 196 -89 55 -90 55 -171 55 -73 0
-84 -3 -118 -28 -20 -16 -48 -47 -63 -70 -14 -23 -27 -44 -29 -46 -1 -1 -81
44 -176 101 -99 59 -248 137 -348 182 -215 96 -268 125 -345 187 -77 63 -129
128 -250 318 -75 119 -96 158 -88 170 5 9 134 224 287 479 236 393 280 461
294 453 9 -5 64 -16 122 -25z m1260 -926 c100 -74 109 -84 133 -142 33 -77 33
-78 3 -78 -42 0 -194 -49 -268 -86 -66 -33 -117 -68 -205 -140 l-33 -27 -180
108 c-100 60 -190 120 -201 134 -25 32 -21 87 9 128 18 25 46 34 324 104 166
43 305 78 307 78 2 1 52 -35 111 -79z m465 -400 c444 -139 649 -626 434 -1031
-119 -224 -378 -379 -634 -379 -204 0 -430 108 -556 265 -43 54 -91 133 -108
177 l-10 27 48 -29 c117 -72 221 -92 303 -57 l36 15 46 -43 c43 -41 118 -75
167 -75 30 0 49 -11 49 -29 0 -23 20 -41 45 -41 27 0 45 18 45 46 0 17 8 24
33 29 73 16 135 63 170 130 16 31 21 59 21 120 1 125 -40 185 -164 242 l-60
27 0 98 c0 112 3 116 83 77 59 -29 93 -20 113 28 31 72 -8 113 -127 134 -55
10 -69 16 -71 32 -7 49 -84 49 -90 0 -2 -23 -10 -29 -41 -35 -46 -10 -94 -33
-125 -62 -29 -26 -62 -88 -62 -116 0 -30 -14 -24 -32 13 -21 43 -93 139 -156
209 l-52 56 42 37 c81 70 190 122 313 151 85 20 251 12 340 -16z m-912 -599
c68 -41 92 -61 107 -91 20 -39 28 -115 12 -108 -5 2 -72 41 -149 87 l-140 84
19 34 c19 31 46 55 58 49 3 -2 44 -26 93 -55z m615 -121 l72 -34 0 -114 0
-114 -27 7 c-16 3 -54 23 -85 43 -54 35 -57 39 -50 67 4 17 7 65 6 108 0 43 2
76 5 74 3 -2 39 -18 79 -37z m1052 -910 l0 -60 -950 0 -950 0 0 60 0 60 950 0
950 0 0 -60z"/>
<path d="M731 2252 c-66 -25 -143 -100 -175 -171 l-26 -59 2 -879 3 -878 30
-54 c38 -68 102 -125 172 -151 54 -20 61 -20 2106 -18 l2052 3 50 27 c66 35
118 90 149 158 l26 55 0 866 c0 998 7 924 -94 1025 -98 97 -73 94 -673 94
-500 0 -514 -1 -533 -20 -21 -21 -26 -69 -10 -100 20 -37 58 -40 555 -40 l482
0 34 -23 c52 -35 77 -79 84 -150 3 -34 5 -411 3 -837 -3 -709 -4 -778 -20
-806 -24 -43 -72 -82 -111 -89 -18 -3 -935 -4 -2039 -3 l-2007 3 -28 21 c-15
11 -38 36 -50 54 l-23 33 0 842 0 842 23 33 c12 18 35 43 50 54 28 21 41 21
539 26 l510 5 19 24 c25 31 25 85 -1 111 -20 20 -33 20 -537 19 -459 0 -523
-2 -562 -17z"/>
</g>
</svg>
