<?xml version="1.0" standalone="no"?>
<!DOCTYPE svg PUBLIC "-//W3C//DTD SVG 20010904//EN"
 "http://www.w3.org/TR/2001/REC-SVG-20010904/DTD/svg10.dtd">
<svg version="1.0" xmlns="http://www.w3.org/2000/svg"
 width="296.000000pt" height="300.000000pt" viewBox="0 0 296.000000 300.000000"
 preserveAspectRatio="xMidYMid meet">
<metadata>
Created by potrace 1.16, written by Peter Selinger 2001-2019
</metadata>
<g transform="translate(0.000000,300.000000) scale(0.100000,-0.100000)"
fill="#000000" stroke="none">
<path d="M710 2987 c-53 -19 -72 -61 -78 -173 l-5 -94 -166 0 c-187 0 -260
-13 -321 -55 -46 -32 -95 -101 -113 -159 -9 -31 -12 -270 -12 -1016 l0 -975
26 -56 c31 -66 83 -119 147 -151 l47 -23 583 -3 c320 -2 582 0 582 3 0 3 -17
37 -37 74 l-38 69 -88 7 c-48 4 -284 6 -525 4 -487 -4 -486 -5 -527 64 -19 31
-20 55 -20 677 l0 645 1110 0 1110 0 3 -67 3 -67 67 -25 c37 -14 71 -26 75
-26 4 0 7 192 5 428 -3 413 -4 429 -24 473 -28 60 -87 119 -150 149 -45 23
-63 25 -245 28 l-196 4 -6 94 c-7 114 -25 153 -81 172 -28 9 -48 9 -75 2 -73
-19 -100 -74 -101 -202 l0 -68 -384 0 -383 0 -5 93 c-6 99 -19 139 -53 161
-33 22 -86 27 -125 13z m-80 -553 c0 -75 5 -154 11 -175 34 -112 171 -128 226
-26 15 26 18 59 20 182 l1 150 389 0 388 0 5 -160 c6 -181 14 -205 76 -231 71
-30 146 13 165 92 4 22 9 99 9 172 l0 134 183 -4 c199 -3 226 -10 263 -65 17
-25 19 -52 22 -265 l3 -238 -1116 0 -1117 0 4 233 c3 223 4 234 26 270 13 20
24 37 25 37 1 0 20 7 42 15 29 10 88 14 208 15 l167 0 0 -136z"/>
<path d="M525 1635 c-21 -20 -25 -35 -27 -87 -3 -88 1 -138 12 -159 15 -27 84
-42 173 -37 111 7 117 14 120 152 2 107 2 108 -26 132 -26 22 -37 24 -128 24
-93 0 -102 -2 -124 -25z"/>
<path d="M952 1648 c-29 -14 -35 -41 -36 -155 -1 -123 8 -133 126 -140 100 -7
150 6 167 43 6 14 11 68 11 120 0 87 -2 97 -25 119 -22 23 -31 25 -122 24 -54
0 -108 -5 -121 -11z"/>
<path d="M1370 1647 c-13 -7 -27 -23 -31 -37 -12 -41 -10 -190 2 -213 30 -56
59 -49 142 36 40 40 91 88 115 107 41 33 43 36 32 66 -6 17 -22 36 -36 43 -34
15 -193 14 -224 -2z"/>
<path d="M2047 1620 c-195 -24 -361 -110 -504 -264 -82 -88 -140 -192 -178
-321 -22 -73 -27 -112 -28 -205 -1 -128 11 -198 54 -311 70 -182 215 -341 396
-432 28 -15 91 -39 140 -53 113 -34 288 -38 398 -9 270 70 481 251 573 492 45
116 55 184 50 330 -4 111 -9 141 -36 222 -110 322 -382 532 -717 554 -44 2
-111 1 -148 -3z m187 -150 c256 -37 454 -203 537 -451 27 -82 32 -108 32 -199
0 -309 -180 -548 -483 -641 -110 -34 -265 -33 -375 4 -103 34 -168 73 -244
143 -82 76 -151 181 -185 284 -25 72 -29 102 -30 200 -2 196 53 329 194 470
158 158 341 220 554 190z"/>
<path d="M2091 1344 c-20 -26 -21 -39 -21 -309 0 -249 2 -284 16 -289 9 -3
132 -6 275 -6 287 0 323 6 335 55 9 35 -10 73 -42 85 -14 6 -117 10 -229 10
l-204 0 -3 219 c-3 199 -5 221 -22 240 -28 31 -79 28 -105 -5z"/>
<path d="M573 1282 c-65 -14 -73 -30 -73 -147 0 -99 2 -107 25 -131 24 -24 29
-25 131 -22 104 3 107 4 128 31 17 24 21 42 21 110 -1 105 -8 131 -42 147 -32
15 -143 22 -190 12z"/>
<path d="M977 1280 c-48 -15 -54 -26 -61 -116 -7 -97 5 -158 34 -174 10 -5 66
-10 124 -10 101 0 105 1 125 26 18 23 21 41 21 125 0 88 -2 101 -22 123 -20
21 -34 25 -108 30 -47 3 -98 1 -113 -4z"/>
<path d="M543 900 c-12 -5 -26 -18 -32 -29 -14 -25 -14 -206 -1 -231 13 -24
69 -40 141 -40 136 0 148 14 150 159 1 139 -4 145 -139 148 -53 2 -107 -2
-119 -7z"/>
<path d="M946 888 c-26 -22 -27 -27 -29 -130 -3 -141 5 -150 126 -156 155 -8
177 13 177 168 0 127 -7 134 -143 138 -97 4 -106 2 -131 -20z"/>
</g>
</svg>
